<svg xmlns="http://www.w3.org/2000/svg" viewBox="0 0 32 32" width="32" height="32">
  <rect width="32" height="32" rx="6" fill="#2563eb"/>
  <!-- Building silhouette -->
  <rect x="6" y="14" width="8" height="14" rx="1" fill="white" opacity="0.9"/>
  <rect x="18" y="8" width="8" height="20" rx="1" fill="white" opacity="0.9"/>
  <!-- Crane arm -->
  <line x1="22" y1="4" x2="22" y2="8" stroke="white" stroke-width="1.5" stroke-linecap="round"/>
  <line x1="14" y1="4" x2="22" y2="4" stroke="white" stroke-width="1.5" stroke-linecap="round"/>
  <line x1="14" y1="4" x2="14" y2="8" stroke="white" stroke-width="1" stroke-linecap="round" opacity="0.6"/>
  <!-- Windows -->
  <rect x="8" y="17" width="2" height="2" rx="0.5" fill="#2563eb" opacity="0.7"/>
  <rect x="8" y="21" width="2" height="2" rx="0.5" fill="#2563eb" opacity="0.7"/>
  <rect x="8" y="25" width="2" height="2" rx="0.5" fill="#2563eb" opacity="0.7"/>
  <rect x="20" y="11" width="2" height="2" rx="0.5" fill="#2563eb" opacity="0.7"/>
  <rect x="20" y="15" width="2" height="2" rx="0.5" fill="#2563eb" opacity="0.7"/>
  <rect x="20" y="19" width="2" height="2" rx="0.5" fill="#2563eb" opacity="0.7"/>
  <rect x="20" y="23" width="2" height="2" rx="0.5" fill="#2563eb" opacity="0.7"/>
  <rect x="24" y="11" width="2" height="2" rx="0.5" fill="#2563eb" opacity="0.5"/>
  <rect x="24" y="15" width="2" height="2" rx="0.5" fill="#2563eb" opacity="0.5"/>
  <rect x="24" y="19" width="2" height="2" rx="0.5" fill="#2563eb" opacity="0.5"/>
</svg>
