<svg xmlns="http://www.w3.org/2000/svg" viewBox="0 0 32 32" width="32" height="32">
  <defs>
    <clipPath id="leftClip32">
      <polygon points="0,0 32,0 0,32"/>
    </clipPath>
    <clipPath id="rightClip32">
      <polygon points="32,0 32,32 0,32"/>
    </clipPath>
  </defs>
  <!-- Blue H (top-left triangle) -->
  <g clip-path="url(#leftClip32)">
    <rect width="32" height="32" fill="#0076c0"/>
    <path d="M6,4 L6,28 L11,28 L11,18 L21,18 L21,28 L26,28 L26,4 L21,4 L21,14 L11,14 L11,4 Z" fill="white"/>
  </g>
  <!-- Red H (bottom-right triangle) -->
  <g clip-path="url(#rightClip32)">
    <rect width="32" height="32" fill="#ee3425"/>
    <path d="M6,4 L6,28 L11,28 L11,18 L21,18 L21,28 L26,28 L26,4 L21,4 L21,14 L11,14 L11,4 Z" fill="white"/>
  </g>
</svg>
