<svg xmlns="http://www.w3.org/2000/svg" viewBox="0 0 320 80" width="320" height="80">
  <!-- Icon -->
  <rect x="4" y="10" width="60" height="60" rx="12" fill="#2563eb"/>
  <rect x="12" y="32" width="16" height="28" rx="2" fill="white" opacity="0.9"/>
  <rect x="36" y="20" width="16" height="40" rx="2" fill="white" opacity="0.9"/>
  <line x1="44" y1="14" x2="44" y2="20" stroke="white" stroke-width="2.5" stroke-linecap="round"/>
  <line x1="28" y1="14" x2="44" y2="14" stroke="white" stroke-width="2.5" stroke-linecap="round"/>
  <rect x="15" y="36" width="4" height="4" rx="1" fill="#2563eb" opacity="0.7"/>
  <rect x="15" y="44" width="4" height="4" rx="1" fill="#2563eb" opacity="0.7"/>
  <rect x="15" y="52" width="4" height="4" rx="1" fill="#2563eb" opacity="0.7"/>
  <rect x="39" y="24" width="4" height="4" rx="1" fill="#2563eb" opacity="0.7"/>
  <rect x="39" y="32" width="4" height="4" rx="1" fill="#2563eb" opacity="0.7"/>
  <rect x="39" y="40" width="4" height="4" rx="1" fill="#2563eb" opacity="0.7"/>
  <rect x="39" y="48" width="4" height="4" rx="1" fill="#2563eb" opacity="0.7"/>
  <!-- Text -->
  <text x="74" y="38" font-family="Arial, Helvetica, sans-serif" font-weight="800" font-size="22" fill="#1e293b">Hadeed</text>
  <text x="74" y="60" font-family="Arial, Helvetica, sans-serif" font-weight="700" font-size="16" fill="#2563eb">Emirates Contracting</text>
</svg>
