<svg xmlns="http://www.w3.org/2000/svg" viewBox="0 0 320 80" width="320" height="80">
  <defs>
    <clipPath id="leftClipLogo">
      <polygon points="4,10 64,10 4,70"/>
    </clipPath>
    <clipPath id="rightClipLogo">
      <polygon points="64,10 64,70 4,70"/>
    </clipPath>
  </defs>
  <!-- Icon with diagonal split H -->
  <g>
    <!-- Blue H (top-left triangle) -->
    <g clip-path="url(#leftClipLogo)">
      <rect x="4" y="10" width="60" height="60" fill="#0076c0"/>
      <path d="M14,18 L14,62 L24,62 L24,44 L44,44 L44,62 L54,62 L54,18 L44,18 L44,36 L24,36 L24,18 Z" fill="white"/>
    </g>
    <!-- Red H (bottom-right triangle) -->
    <g clip-path="url(#rightClipLogo)">
      <rect x="4" y="10" width="60" height="60" fill="#ee3425"/>
      <path d="M14,18 L14,62 L24,62 L24,44 L44,44 L44,62 L54,62 L54,18 L44,18 L44,36 L24,36 L24,18 Z" fill="white"/>
    </g>
  </g>
  <!-- Text -->
  <text x="74" y="38" font-family="Arial, Helvetica, sans-serif" font-weight="800" font-size="22" fill="#1e293b">Hadeed</text>
  <text x="74" y="60" font-family="Arial, Helvetica, sans-serif" font-weight="700" font-size="16" fill="#0076c0">Emirates Contracting</text>
</svg>
